<svg xmlns="http://www.w3.org/2000/svg" xmlns:xlink="http://www.w3.org/1999/xlink" version="1.1" id="Слой_1" x="0px" y="0px" viewBox="0 0 500 500" style="enable-background:new 0 0 500 500;" xml:space="preserve">
<style type="text/css">
	.st0{fill:url(#_x31__деление_2_);}
	.st1{fill:url(#_x31__деление__x28_Н_x29__1_);}
	.st2{fill:url(#_x32__деление_2_);}
	.st3{fill:url(#_x32__деление__x28_Н_x29__1_);}
	.st4{fill:#FFDCC7;}
	.st5{opacity:0.25;fill:#FFDCC7;}
	.st6{fill:#2D2B3B;}
	.st7{fill:url(#Голова_1_);}
	.st8{fill:#FFFFFF;}
</style>
<g id="_x31__деление_1_">
	
		<linearGradient id="_x31__деление_2_" gradientUnits="userSpaceOnUse" x1="142.0619" y1="188.3026" x2="142.0619" y2="499.9292">
		<stop offset="0" style="stop-color:#FF2128"/>
		<stop offset="0.5051" style="stop-color:#FF2756"/>
		<stop offset="1" style="stop-color:#FF1A6C"/>
	</linearGradient>
	<path id="_x31__деление" class="st0" d="M244.4,499.9c-68.8-12.5-151.9-230.4-37-311.6c-186.6,2.8-167.1,196.9-167,197.9   C84,453.2,158.9,498.1,244.4,499.9z"/>
	
		<linearGradient id="_x31__деление__x28_Н_x29__1_" gradientUnits="userSpaceOnUse" x1="76.9226" y1="244.1552" x2="288.5522" y2="455.7848">
		<stop offset="0" style="stop-color:#2D2B3B;stop-opacity:0.35"/>
		<stop offset="1" style="stop-color:#FFFFFF;stop-opacity:0"/>
	</linearGradient>
	<path id="_x31__деление__x28_Н_x29_" class="st1" d="M244.4,499.9c-68.8-12.5-151.9-230.4-37-311.6   c-186.6,2.8-167.1,196.9-167,197.9C84,453.2,158.9,498.1,244.4,499.9z"/>
</g>
<g id="_x32__деление_1_">
	
		<linearGradient id="_x32__деление_2_" gradientUnits="userSpaceOnUse" x1="135.2954" y1="306.4439" x2="437.3326" y2="440.9195">
		<stop offset="0" style="stop-color:#FF2128"/>
		<stop offset="0.5051" style="stop-color:#FF2756"/>
		<stop offset="1" style="stop-color:#FF1A6C"/>
	</linearGradient>
	<path id="_x32__деление" class="st2" d="M446.9,404.1c0,0.1-0.1,0.1-0.1,0.2c0.9-1.1,1.7-2.2,2.6-3.3   c6.5-8.6,12.4-17.5,17.8-26.9c-1.2,2-2.4,4.1-3.6,6.1c-20.1,27-48.6,43.9-85.5,43.9c-103.1,0-171.4-105.8-188-129l0,0   c-9.4-12.5-15-28.1-15-45c0-24,11.3-45.4,28.9-59.2C94.2,274,176.3,487.5,244.4,499.9c-0.9,0-1.8-0.1-2.7-0.1   c2.7,0.1,5.5,0.2,8.3,0.2c80.7,0,152.4-38.2,198.1-97.5L446.9,404.1z"/>
	
		<linearGradient id="_x32__деление__x28_Н_x29__1_" gradientUnits="userSpaceOnUse" x1="135.2954" y1="306.4439" x2="437.3326" y2="440.9195">
		<stop offset="0" style="stop-color:#2D2B3B;stop-opacity:0.45"/>
		<stop offset="1" style="stop-color:#FFFFFF;stop-opacity:0"/>
	</linearGradient>
	<path id="_x32__деление__x28_Н_x29_" class="st3" d="M446.9,404.1c0,0.1-0.1,0.1-0.1,0.2c0.9-1.1,1.7-2.2,2.6-3.3   c6.5-8.6,12.4-17.5,17.8-26.9c-1.2,2-2.4,4.1-3.6,6.1c-20.1,27-48.6,43.9-85.5,43.9c-103.1,0-171.4-105.8-188-129l0,0   c-9.4-12.5-15-28.1-15-45c0-24,11.3-45.4,28.9-59.2C94.2,274,176.3,487.5,244.4,499.9c-0.9,0-1.8-0.1-2.7-0.1   c2.7,0.1,5.5,0.2,8.3,0.2c80.7,0,152.4-38.2,198.1-97.5L446.9,404.1z"/>
</g>
<g id="Клюв_1_">
	<g>
		<path class="st4" d="M315,287.5c16.8-26.3,62.5-23.8,94-23.8c26,0,71-13.7,89-45.7c-6.4-49.9-27.5-95.3-58.8-131.5    c-88.4,0-110.2,69.3-149.9,99.6C310.7,199.3,325,223,325,250C325,263.7,321.3,276.4,315,287.5C315,287.5,315,287.5,315,287.5z"/>
		<path class="st5" d="M446.9,404.1l2.4-3.2c-0.9,1.1-1.7,2.2-2.6,3.4C446.8,404.2,446.9,404.1,446.9,404.1z"/>
		<path class="st5" d="M190,295c0.6,0.8,1.2,1.5,1.8,2.3C191.2,296.5,190.6,295.8,190,295z"/>
	</g>
</g>
<path id="Кончи_клюва" class="st6" d="M499.1,271.3c1.2-17.4,0.8-35.3-1.1-53.3c0,0,0,0,0,0c-18,32-63,45.7-89,45.7  c-31.5,0-77.2-2.6-94,23.8c0,0,0,0,0,0c-11.1,19.2-30.4,33-53.1,36.6c0,0,0,0,0,0c0,0,0,0,0,0C257,325,251.6,325,250,325  c-24.5,0-46.3-11.8-60-30c0,0,0,0,0,0c16.6,23.2,84.9,129,188,129c36.9,0,67-16,85.5-43.9c20.4-33.5,33.2-72.1,35.9-113.5  C499.3,268.1,499.2,269.7,499.1,271.3z"/>
<linearGradient id="Голова_1_" gradientUnits="userSpaceOnUse" x1="219.5772" y1="0" x2="219.5772" y2="386.2065">
	<stop offset="0" style="stop-color:#FF2128"/>
	<stop offset="0.5051" style="stop-color:#FF2756"/>
	<stop offset="1" style="stop-color:#FF1A6C"/>
</linearGradient>
<path id="Голова" class="st7" d="M250,0C111.9,0,0,111.9,0,250c0,50.2,14.8,97,40.3,136.2C40.3,385.9,23,190,205,190  c15,0,27,10,45,10c17,0,28-5,39.3-13.9c39.7-30.3,61.4-99.6,149.9-99.6C393.3,33.5,325.6,0,250,0z"/>
<g id="Глаз">
	<circle class="st8" cx="244" cy="101" r="35"/>
	<path class="st6" d="M244,79c-2.8,0-5.5,0.5-8,1.5V93h-12.5c-1,2.5-1.5,5.2-1.5,8c0,12.2,9.8,22,22,22s22-9.8,22-22   S256.2,79,244,79z"/>
</g>
<path id="Носопырка" class="st6" d="M336.5,216c4.6,14.7,5.3,31.2,7.2,33c2.6,2.5,5.6-20.4,0.5-35  c-5.1-14.6-20-31.3-22.1-27.1C320.9,189.2,332.7,203.8,336.5,216z"/>
</svg>